<?xml version="1.0" standalone="no"?>
<!DOCTYPE svg PUBLIC "-//W3C//DTD SVG 20010904//EN"
 "http://www.w3.org/TR/2001/REC-SVG-20010904/DTD/svg10.dtd">
<svg version="1.0" xmlns="http://www.w3.org/2000/svg"
 width="200.000000pt" height="200.000000pt" viewBox="0 0 200.000000 200.000000"
 preserveAspectRatio="xMidYMid meet">
<metadata>
Created by potrace 1.11, written by Peter Selinger 2001-2013
</metadata>
<g transform="translate(0.000000,200.000000) scale(0.100000,-0.100000)"
fill="#000000" stroke="none">
<path d="M0 1000 l0 -1000 1000 0 1000 0 0 1000 0 1000 -1000 0 -1000 0 0
-1000z m1620 140 l0 -410 -95 0 -94 0 -3 -82 -3 -83 -97 -3 -98 -3 0 -79 0
-80 -410 0 -410 0 0 410 0 410 95 0 94 0 3 83 3 82 98 3 97 3 0 79 0 80 410 0
410 0 0 -410z"/>
<path d="M620 1295 l0 -75 305 0 305 0 0 -320 0 -320 90 0 90 0 0 395 0 395
-395 0 -395 0 0 -75z"/>
<path d="M420 810 l0 -400 400 0 400 0 0 75 0 75 -307 2 -308 3 -3 323 -2 322
-90 0 -90 0 0 -400z"/>
</g>
</svg>
